<svg xmlns="http://www.w3.org/2000/svg" viewBox="0 0 112.99 95.97"><title>DesignGrafico</title><g id="Layer_2" data-name="Layer 2"><g id="Layer_1-2" data-name="Layer 1"><path d="M74.05,74.1a37.93,37.93,0,0,1,3-7.42,39,39,0,0,1,6.07-8.42c1.14-1.21,1.69-2.15,1.69-3.16a5.49,5.49,0,0,0-1.17-2.91L59.9,16.51a4.25,4.25,0,0,0-3.4-2.22,4.22,4.22,0,0,0-3.39,2.22L29.27,52.27c-1.63,2.45-1.52,3.77.5,5.91a39.36,39.36,0,0,1,6.15,8.5,38.78,38.78,0,0,1,3,7.42,41.13,41.13,0,0,1,1.14,5,1.24,1.24,0,0,1-.46,1.33,15.77,15.77,0,0,0-5,8.92c-.73,3.73-.29,5,2.24,6.53L37,96H76l.1,0c2-.9,2.79-2.5,2.52-4.87a16.2,16.2,0,0,0-5.25-10.6,1.23,1.23,0,0,1-.46-1.33A41.13,41.13,0,0,1,74.05,74.1ZM56.49,52.45h0a2.54,2.54,0,0,1,1.82.77,2.57,2.57,0,0,1,.74,1.83,2.51,2.51,0,0,1-.77,1.81,2.72,2.72,0,0,1-1.82.76,2.59,2.59,0,0,1,0-5.17ZM43.9,66.68a46.24,46.24,0,0,0-7.59-12L52.9,29.77V32.3q0,6.59,0,13.16c0,.42-.07.53-.43.7A9.74,9.74,0,0,0,54.1,64.49,9.84,9.84,0,0,0,64.53,60.6a9.75,9.75,0,0,0-3.79-14.33.91.91,0,0,1-.66-1.07q0-6.08,0-12.15V29.76l16.6,24.9a46.41,46.41,0,0,0-7.59,12,44.61,44.61,0,0,0-2.49,7.42c-.2.78-.38,1.56-.53,2.36a145.83,145.83,0,0,0-19.16,0c-.15-.8-.33-1.58-.53-2.36A44.61,44.61,0,0,0,43.9,66.68Zm-1.51,22a8.4,8.4,0,0,1,7.24-5.23c5.56-.2,9.8-.2,13.77,0,3.18.17,5.62,1.93,7.24,5.22Z"/><path d="M113,42.54c0-10.41,0-20.82,0-31.23,0-5.42-3.22-9.69-8.21-11a13.87,13.87,0,0,0-1.61-.28L102.52,0H67l-.4,0Q53,0,39.34,0H11.58C4.65,0,0,4.6,0,11.5Q0,37.06,0,62.61a14,14,0,0,0,.33,3.17C1.56,70.84,5.68,74,11.17,74.1H46.39a44.61,44.61,0,0,0-2.49-7.42H11.3c-2.49,0-3.84-1.3-3.84-3.8q0-25.8,0-51.59c0-2.49,1.36-3.85,3.82-3.85h90.58c2.39.1,3.67,1.41,3.67,3.89q0,25.74,0,51.47c0,2.59-1.32,3.88-3.88,3.88H69.1a44.61,44.61,0,0,0-2.49,7.42h35.26a12.51,12.51,0,0,0,2.21-.17,10.83,10.83,0,0,0,8.89-11C113,56.12,113,49.33,113,42.54Z"/></g></g></svg>