<svg xmlns="http://www.w3.org/2000/svg" viewBox="0 0 112.99 64.71"><title>Motion Design</title><g id="Layer_2" data-name="Layer 2"><g id="Layer_1-2" data-name="Layer 1"><rect y="13.43" width="112.99" height="17.46" rx="2.13"/><rect x="22.26" y="39.14" width="90.72" height="17.46" rx="2.13"/><path d="M65,33.4h54.78a1.82,1.82,0,0,1,1.82,1.82V37.6a1.82,1.82,0,0,1-1.82,1.82H65a0,0,0,0,1,0,0v-6A0,0,0,0,1,65,33.4Z" transform="translate(129.69 -56.88) rotate(90)"/><path d="M87.16,1.82V5.46a1.83,1.83,0,0,0,.68,1.42l4.3,3.47a1.82,1.82,0,0,0,2.29,0l4.3-3.47a1.83,1.83,0,0,0,.68-1.42V1.82A1.82,1.82,0,0,0,97.59,0H89A1.82,1.82,0,0,0,87.16,1.82Z"/></g></g></svg>