<svg xmlns="http://www.w3.org/2000/svg" viewBox="0 0 127.29 114.02"><title>Prpgramacao</title><g id="Layer_2" data-name="Layer 2"><g id="Layer_1-2" data-name="Layer 1"><path d="M127.27,27.12a17.12,17.12,0,0,0-2-8.07c-3.74-7-9.6-10.4-17.52-10.4h-6.17c-4.24,0-8.49,0-12.73,0h-9.6a3.84,3.84,0,0,0-3.61,2.56l0,.09a3.84,3.84,0,0,0,3.62,5.1h28.54a11.16,11.16,0,0,1,9.46,4.34,10.36,10.36,0,0,1,2.25,6.46q0,29.82,0,59.64A10.82,10.82,0,0,1,109,97.59l-.9,0H60.21a3.84,3.84,0,0,0-3.62,2.56l0,.08a3.82,3.82,0,0,0,3.61,5.1h1q20.22,0,40.43,0h1.14c2.15,0,4.31,0,6.45,0a18.61,18.61,0,0,0,18.05-18.44C127.31,67,127.28,47.05,127.27,27.12Z"/><path d="M0,86.88A16.89,16.89,0,0,0,2,95c3.74,7,9.6,10.41,17.51,10.4h6.18v0c4.24,0,8.49,0,12.72,0H48a3.83,3.83,0,0,0,3.61-2.57l0-.08A3.83,3.83,0,0,0,48,97.6H19.48A11.18,11.18,0,0,1,10,93.28a10.31,10.31,0,0,1-2.25-6.47q0-29.82,0-59.64A10.83,10.83,0,0,1,18.32,16.42l.91,0H67.08a3.82,3.82,0,0,0,3.61-2.55l0-.08a3.83,3.83,0,0,0-3.61-5.11H24.52c-2.15,0-4.3,0-6.45,0A18.59,18.59,0,0,0,0,27.11C0,47,0,67,0,86.88Z"/><path d="M86,5.35c-.39,1.11-.77,2.21-1.16,3.31-.9,2.58-1.81,5.17-2.72,7.75l-2.37,6.68Q73.53,40.63,67.33,58.15a2.83,2.83,0,0,1-.11.31c-1.51,4.34-3,8.66-4.58,13q-7,19.74-13.94,39.48C48,113,46.73,114,44.91,114a3.93,3.93,0,0,1-2.11-.55,4,4,0,0,1-1.5-4.86c.38-1.08.76-2.17,1.15-3.25l2.73-7.75q1.64-4.58,3.25-9.16,6.49-18.4,13-36.81c.05-.15.11-.3.17-.45,1.31-3.7,2.63-7.4,3.93-11.1q4.19-11.83,8.35-23.68,1.38-3.87,2.73-7.75c.63-1.79,1.26-3.59,1.9-5.38A4.91,4.91,0,0,1,80.37.55,3.7,3.7,0,0,1,81.9,0C84.92-.33,87,2.36,86,5.35Z"/><path d="M108.1,59.23Q97.39,70,86.67,80.68a4.23,4.23,0,0,1-3.41,1.5,3.84,3.84,0,0,1-2.58-6.42c1.14-1.23,2.35-2.39,3.54-3.58Q91.78,64.6,99.37,57a14.15,14.15,0,0,1,1.27-1L85.5,41c-.76-.76-1.53-1.51-2.28-2.28-1.77-1.81-1.86-4.13-.24-5.74s3.93-1.48,5.74.29c.9.88,1.77,1.77,2.65,2.65l16.7,16.7C110.39,54.9,110.4,56.93,108.1,59.23Z"/><path d="M17.52,54.77,39,33.33a4.17,4.17,0,0,1,3.41-1.5,3.84,3.84,0,0,1,2.58,6.42c-1.14,1.23-2.35,2.39-3.54,3.57Q33.83,49.4,26.25,57a12.43,12.43,0,0,1-1.27,1L40.12,73.06c.76.75,1.53,1.51,2.28,2.27,1.77,1.82,1.86,4.14.24,5.75s-3.93,1.47-5.74-.3c-.9-.87-1.77-1.76-2.65-2.64l-16.7-16.7C15.23,59.11,15.22,57.08,17.52,54.77Z"/></g></g></svg>