<svg xmlns="http://www.w3.org/2000/svg" viewBox="0 0 116.71 118.74"><title>WebSite</title><g id="Layer_2" data-name="Layer 2"><g id="Layer_1-2" data-name="Layer 1"><path d="M41.38,91.13h.87C42,91.11,41.68,91.13,41.38,91.13Z"/><path d="M83.11,62c0,1.51-1.09,2.32-3.2,2.32H21.61c-.39,0-.78,0-1.16,0a2.3,2.3,0,0,1-.15-4.59,9,9,0,0,1,1,0H79.88C82,59.68,83.09,60.48,83.11,62Z"/><path d="M35.64,30.39c-2.48,0-4.95,0-7.43,0s-4.94,0-7.42,0c-1.72,0-2.62.84-2.63,2.53q0,7.53,0,15.07a2.31,2.31,0,0,0,2.62,2.55H35.63a2.41,2.41,0,0,0,2.72-2.71q0-7.36,0-14.72A2.4,2.4,0,0,0,35.64,30.39Zm-2,15.43H22.86V35.09H33.65Z"/><path d="M72.88,76.59A2.32,2.32,0,0,1,70.55,79a9.1,9.1,0,0,1-1,0h-48A8.34,8.34,0,0,1,20,78.9a2.28,2.28,0,0,1,.21-4.51c.38,0,.77,0,1.16,0h49A2.32,2.32,0,0,1,72.88,76.59Z"/><path d="M115.87,108.16c-2.32-3.56-4.66-7.1-7-10.66-.21-.31-.39-.61-.62-1,1.33-.36,2.55-.74,3.79-1a3.14,3.14,0,0,0,.75-6c-3.49-2-6.93-4.09-10.41-6.08a2,2,0,0,1-1.21-2.06q0-35.82,0-71.65a13.12,13.12,0,0,0-.32-3.2c-1-4-4.36-6.47-8.78-6.47H9.3C3.56,0,0,3.57,0,9.35v77.1c0,5.77,3.57,9.33,9.33,9.33H41.45c.27,0,.54,0,.8,0H85.31a4.21,4.21,0,0,1,.15.53c.41,3.37.84,6.74,1.21,10.12a3.31,3.31,0,0,0,2.26,3.18c1.41.46,2.52,0,3.69-1.47L95,105.22c.32.46.57.81.8,1.17,2.21,3.34,4.38,6.73,6.64,10a17.62,17.62,0,0,0,2.33,2.32h1.63c2.81-1.84,5.63-3.64,8.44-5.49C116.94,111.89,117.27,110.28,115.87,108.16ZM4.82,7.71a3.59,3.59,0,0,1,3.46-3,11.23,11.23,0,0,1,1.16,0h82.3c3.37,0,4.83,1.44,4.83,4.78,0,2.11,0,4.25,0,6.38,0,0-.07.12-.14.27H4.77C4.77,13.23,4.65,10.47,4.82,7.71ZM84.45,75a3.12,3.12,0,0,0-1.24,3.16c.11.84.22,1.68.32,2.53.42,3.45.85,6.88,1.28,10.45H9.38c-3.26,0-4.74-1.47-4.74-4.75V20.85H96.47v59L94,78.42c-2-1.17-4-2.35-6-3.48A3,3,0,0,0,84.45,75ZM106,113.48c-.34-.49-.65-.93-.94-1.37-2.38-3.62-4.74-7.24-7.13-10.85-1.56-2.36-3.8-2.44-5.59-.24-.43.52-.85,1-1.45,1.8C90,95.25,89.11,88,88.18,80.41l19.43,11.4c-1,.29-1.73.49-2.48.72a3.07,3.07,0,0,0-1.84,4.91c2.46,3.79,5,7.55,7.43,11.34.24.33.45.7.73,1.13Z"/><path d="M83.1,32.79A2.34,2.34,0,0,1,80.51,35c-5,0-10,0-15,0s-9.81,0-14.72,0a3.36,3.36,0,0,1-2.14-.84,2.25,2.25,0,0,1,1.38-3.72,4.36,4.36,0,0,1,.81,0H80.32C82.05,30.39,83.17,31.38,83.1,32.79Z"/><path d="M83.11,47.4a2.35,2.35,0,0,1-2.56,2.26c-5,0-10,0-15,0s-10,0-15,0a2.31,2.31,0,0,1-.6-4.57A6.61,6.61,0,0,1,51.3,45H79.94c.22,0,.46,0,.69,0A2.39,2.39,0,0,1,83.11,47.4Z"/><path d="M88.18,10.56a2.31,2.31,0,1,1-4.61,0,2.31,2.31,0,0,1,4.61,0Z"/><path d="M79.65,10.52a2.3,2.3,0,0,1-2.31,2.38,2.35,2.35,0,0,1-2.29-2.3,2.3,2.3,0,0,1,2.27-2.28A2.23,2.23,0,0,1,79.65,10.52Z"/><path d="M71.18,10.54a2.3,2.3,0,1,1-4.6.05,2.2,2.2,0,0,1,2.26-2.26A2.25,2.25,0,0,1,71.18,10.54Z"/></g></g></svg>